<svg width="960" height="640" viewBox="0 0 960 640" fill="none" xmlns="http://www.w3.org/2000/svg">
  <rect width="960" height="640" rx="40" fill="#F2E5D8"/>
  <rect x="48" y="48" width="864" height="544" rx="30" fill="url(#sky)"/>
  <path d="M70 420C180 310 320 270 480 274C640 278 772 344 890 420V532H70V420Z" fill="#87B667"/>
  <rect x="126" y="470" width="708" height="46" rx="14" fill="#6CA1C5"/>
  <rect x="220" y="254" width="150" height="170" rx="14" fill="#D6B894"/>
  <rect x="406" y="220" width="168" height="204" rx="16" fill="#C88461"/>
  <rect x="612" y="270" width="126" height="154" rx="14" fill="#DBC9B1"/>
  <path d="M446 220H532L512 186H466L446 220Z" fill="#9B654A"/>
  <path d="M656 270H694V226H676V208H656V270Z" fill="#8A5C45"/>
  <text x="132" y="552" fill="#4D2F1C" font-size="28" font-family="'Bree Serif', serif">Stuttgart • Schlossplatz, vineyards, Swabian food</text>
  <defs>
    <linearGradient id="sky" x1="480" y1="48" x2="480" y2="592" gradientUnits="userSpaceOnUse">
      <stop stop-color="#D6ECFF"/>
      <stop offset="1" stop-color="#F4CFA2"/>
    </linearGradient>
  </defs>
</svg>
